<svg width="47" height="44" viewBox="0 0 47 44" fill="none" xmlns="http://www.w3.org/2000/svg">
<path d="M7.22018 4H31.0043V1L35.7611 6L31.0043 11V8H13.8797" stroke="white" stroke-width="2" stroke-miterlimit="10" stroke-linejoin="round"/>
<path d="M33.8584 22H40.5179V19L45.2747 24L40.5179 29V26H34.8097" stroke="white" stroke-width="2" stroke-miterlimit="10" stroke-linejoin="round"/>
<path d="M29.1015 36H33.8583V33L38.6152 38L33.8583 43V40H14.831" stroke="white" stroke-width="2" stroke-miterlimit="10" stroke-linejoin="round"/>
<path d="M0.560486 34H11.9769" stroke="white" stroke-width="2" stroke-miterlimit="10" stroke-linejoin="round"/>
<path d="M20.5391 27C22.1154 27 23.3932 25.6569 23.3932 24C23.3932 22.3431 22.1154 21 20.5391 21C18.9628 21 17.685 22.3431 17.685 24C17.685 25.6569 18.9628 27 20.5391 27Z" stroke="white" stroke-width="2" stroke-miterlimit="10" stroke-linejoin="round"/>
<path d="M31.7666 21.3L30.5299 18L27.6758 19C27.105 18.1 26.439 17.4 25.6779 16.8L26.7244 13.7L23.68 12.3L22.253 15.2C21.3016 15 20.3503 15 19.3989 15.1L18.067 12.2L14.9275 13.5L15.7837 16.6C14.9275 17.2 14.2615 17.9 13.6907 18.7L10.7415 17.6L9.40949 20.8L12.1685 22.3C11.9782 23.3 11.9782 24.3 12.0734 25.3L9.31439 26.7L10.5512 30L13.5004 29.1C14.0712 30 14.7372 30.6999 15.4983 31.2999L14.4518 34.4L17.4962 35.7999L18.9232 32.9C19.8746 33.1 20.8259 33.1 21.7773 33L23.1092 35.9L26.2487 34.5999L25.2974 31.5C26.1536 30.9 26.8195 30.2 27.3904 29.4L30.3396 30.5L31.6715 27.3L28.9125 25.8C29.1028 24.8 29.1028 23.8 29.0077 22.8L31.7666 21.3Z" stroke="white" stroke-width="2" stroke-miterlimit="10" stroke-linejoin="round"/>
<path d="M11.9783 13H3.41595" stroke="white" stroke-width="2" stroke-miterlimit="10" stroke-linejoin="round"/>
</svg>
