<svg width="39" height="50" viewBox="0 0 39 50" fill="none" xmlns="http://www.w3.org/2000/svg">
<path d="M19.4846 2C17.7721 4.6 5.97521 10 1.40863 10C1.40863 18.7 1.40863 21.5 1.40863 29C1.40863 37.9 18.4381 47.7 19.4846 48C20.5311 47.7 37.5605 37.3 37.5605 30C37.5605 22.5 37.5605 18.7 37.5605 10C32.5183 10 21.2922 4.6 19.4846 2Z" stroke="white" stroke-width="2" stroke-miterlimit="10"/>
<path d="M19.4845 43C20.2456 42.8 33.755 33.7 33.755 28C33.755 22.1 33.755 20.8 33.755 14" stroke="white" stroke-width="2" stroke-miterlimit="10"/>
<path d="M19.4857 8C18.0587 10.1 8.8304 14 5.2153 14C5.2153 20.8 5.2153 23.1 5.2153 29" stroke="white" stroke-width="2" stroke-miterlimit="10"/>
<path d="M13.7778 25L17.5832 29L25.1941 20" stroke="white" stroke-width="2" stroke-miterlimit="10"/>
</svg>
