<svg width="46" height="47" viewBox="0 0 46 47" fill="none" xmlns="http://www.w3.org/2000/svg">
<path d="M5.73031 22.8C2.30543 20.5 0.0221463 16.8 2.02002 12.3C3.92275 7.70005 12.1996 6.90005 15.91 2.50005C19.3349 6.60005 19.5251 13.3001 16.4808 18.7001C14.4829 22.3001 10.6774 22.8 8.77471 22.8" stroke="white" stroke-width="2" stroke-miterlimit="10"/>
<path d="M20.6651 5.49995C22.1873 5.09995 23.8046 4.89995 25.5171 4.89995C36.1724 4.89995 44.8298 13.9999 44.8298 25.1999C44.8298 36.3999 36.1724 45.4999 25.5171 45.4999C14.8618 45.4999 6.20431 36.2999 6.20431 25.0999C6.20431 18.7999 8.96331 13.1999 13.2444 9.49995" stroke="white" stroke-width="2" stroke-miterlimit="10"/>
<path d="M44.7381 26.3999H41.884L39.9813 23.3999H38.0785L37.1272 24.3999H34.2731L29.5162 19.3999H22.8567V17.3999C22.8567 15.1999 24.5691 13.3999 26.6621 13.3999H28.5649L30.4676 11.3999H35.2244L37.1272 9.39995" stroke="white" stroke-width="2" stroke-miterlimit="10"/>
<path d="M30.466 38.3999H27.6119V31.3999L25.7091 29.3999H21.9037V26.3999L24.7578 23.3999H29.5146L34.2714 28.3999V34.3999L30.466 38.3999Z" stroke="white" stroke-width="2" stroke-miterlimit="10"/>
</svg>
