<svg width="45" height="47" viewBox="0 0 45 47" fill="none" xmlns="http://www.w3.org/2000/svg">
<path d="M22.7126 0V9" stroke="white" stroke-width="2" stroke-miterlimit="10" stroke-linejoin="round"/>
<path d="M7.48953 7L13.2928 13.1" stroke="white" stroke-width="2" stroke-miterlimit="10" stroke-linejoin="round"/>
<path d="M0.829834 23H9.39213" stroke="white" stroke-width="2" stroke-miterlimit="10" stroke-linejoin="round"/>
<path d="M7.48953 38.9999L13.2928 32.8999" stroke="white" stroke-width="2" stroke-miterlimit="10" stroke-linejoin="round"/>
<path d="M37.9332 38.9999L32.1298 32.8999" stroke="white" stroke-width="2" stroke-miterlimit="10" stroke-linejoin="round"/>
<path d="M44.5913 23H36.029" stroke="white" stroke-width="2" stroke-miterlimit="10" stroke-linejoin="round"/>
<path d="M37.9332 7L32.1298 13.1" stroke="white" stroke-width="2" stroke-miterlimit="10" stroke-linejoin="round"/>
<path d="M26.5149 45H25.5636L24.6122 46H22.7095H20.8068L19.8554 45H18.904" stroke="white" stroke-width="2" stroke-miterlimit="10" stroke-linejoin="round"/>
<path d="M17.0017 39H28.4181" stroke="white" stroke-width="2" stroke-miterlimit="10" stroke-linejoin="round"/>
<path d="M17.9543 42H27.468" stroke="white" stroke-width="2" stroke-miterlimit="10" stroke-linejoin="round"/>
<path d="M27.4681 37V35C27.4681 33.2 28.0389 31.5 29.2757 30.2C31.0833 28.3 32.2249 25.9 32.2249 23C32.2249 17.5 27.9438 13 22.7113 13C17.4787 13 13.1976 17.5 13.1976 23C13.1976 25.9 14.3392 28.3 16.1468 30.2C17.3836 31.5 17.9544 33.1 17.9544 35V37" stroke="white" stroke-width="2" stroke-miterlimit="10" stroke-linejoin="round"/>
<path d="M16.1467 6.3999L17.5737 10.0999" stroke="white" stroke-width="2" stroke-miterlimit="10" stroke-linejoin="round"/>
<path d="M6.91965 16.1001L10.4397 17.6001" stroke="white" stroke-width="2" stroke-miterlimit="10" stroke-linejoin="round"/>
<path d="M6.91965 29.8999L10.4397 28.3999" stroke="white" stroke-width="2" stroke-miterlimit="10" stroke-linejoin="round"/>
<path d="M38.5022 29.8999L34.9821 28.3999" stroke="white" stroke-width="2" stroke-miterlimit="10" stroke-linejoin="round"/>
<path d="M38.5022 16.1001L34.9821 17.6001" stroke="white" stroke-width="2" stroke-miterlimit="10" stroke-linejoin="round"/>
<path d="M29.2758 6.3999L27.8487 10.0999" stroke="white" stroke-width="2" stroke-miterlimit="10" stroke-linejoin="round"/>
<path d="M19.8571 26L22.7112 28L25.5653 26" stroke="white" stroke-width="2" stroke-miterlimit="10"/>
<path d="M22.7126 28V37" stroke="white" stroke-width="2" stroke-miterlimit="10"/>
</svg>
